<svg id="Слой_1" data-name="Слой 1" xmlns="http://www.w3.org/2000/svg" viewBox="0 0 122 89"><defs><style>.cls-1{fill:#555;}</style></defs><title>logo</title><polygon class="cls-1" points="97.09 23.5 87.9 23.5 87.25 24.16 87.25 44.5 34.75 44.5 34.75 24.16 34.1 23.5 24.91 23.5 24.26 24.16 24.26 54.34 24.91 54.99 34.75 54.99 34.75 55.65 34.75 55.65 34.75 64.84 35.41 65.5 44.6 65.49 45.25 64.84 45.25 55.65 45.25 55.65 45.25 54.99 55.75 54.99 55.75 55.65 55.75 60.27 55.75 64.84 56.41 65.49 65.59 65.49 66.25 64.84 66.25 55.65 66.25 55.65 66.25 54.99 76.75 54.99 76.75 55.65 76.75 60.32 76.75 64.84 77.4 65.49 86.59 65.49 87.25 64.84 87.25 55.65 87.25 55.65 87.25 54.99 97.09 54.99 97.74 54.34 97.74 24.16 97.09 23.5"/><polygon class="cls-1" points="55.09 34 55.75 33.34 55.75 24.16 55.09 23.5 45.91 23.5 45.25 24.16 45.25 33.35 45.91 34 55.09 34"/><polygon class="cls-1" points="76.09 34 76.75 33.35 76.75 24.16 76.09 23.5 66.91 23.51 66.25 24.16 66.25 33.35 66.91 34 76.09 34"/></svg>