<?xml version="1.0" encoding="utf-8"?>
<!-- Generator: Adobe Illustrator 17.0.0, SVG Export Plug-In . SVG Version: 6.00 Build 0)  -->
<!DOCTYPE svg PUBLIC "-//W3C//DTD SVG 1.1//EN" "http://www.w3.org/Graphics/SVG/1.1/DTD/svg11.dtd">
<svg version="1.1" id="Layer_1" xmlns="http://www.w3.org/2000/svg" xmlns:xlink="http://www.w3.org/1999/xlink" x="0px" y="0px"
	 width="209px" height="68px" viewBox="0 0 209 68" enable-background="new 0 0 209 68" xml:space="preserve">
<g>
	<g>
		<path fill="#ff806c" d="M39.868,40.567l-0.837,3.076c-0.165,0.562-0.569,0.842-1.21,0.842h-2.638
			c-0.577,0-0.864-0.259-0.864-0.777c0-0.165,0.04-0.393,0.119-0.684l5.564-18.517c0.225-0.681,0.766-1.023,1.626-1.023h2.884
			c0.859,0,1.401,0.362,1.626,1.086l5.565,18.547c0.079,0.278,0.119,0.486,0.119,0.624c0,0.495-0.278,0.743-0.833,0.743h-2.528
			c-0.615,0-1.002-0.279-1.16-0.837l-0.842-3.082H39.868z M43.175,28.541l-2.363,8.556h4.699L43.175,28.541z"/>
		<path fill="#ff806c" d="M63.876,43.648l-2.483-5.504h-3.051v5.265c0,0.718-0.359,1.077-1.077,1.077h-2.273
			c-0.717,0-1.077-0.359-1.077-1.077V24.563c0-0.718,0.359-1.077,1.077-1.077h6.881c2.652,0,4.472,0.46,5.459,1.378
			s1.48,2.585,1.48,5.001v1.917c0,1.757-0.247,3.1-0.741,4.028c-0.494,0.928-1.326,1.572-2.495,1.931l2.638,5.412
			c0.14,0.238,0.21,0.435,0.21,0.593c0,0.494-0.309,0.74-0.928,0.74h-2.453C64.504,44.486,64.115,44.207,63.876,43.648z
			 M58.342,34.375h3.5c0.957,0,1.62-0.199,1.989-0.598c0.369-0.399,0.553-1.097,0.553-2.094v-1.735c0-0.997-0.184-1.695-0.553-2.094
			c-0.369-0.399-1.032-0.598-1.989-0.598h-3.5V34.375z"/>
		<path fill="#ff806c" d="M75.392,43.409V27.255h-4.278c-0.717,0-1.077-0.359-1.077-1.077v-1.615c0-0.718,0.359-1.077,1.077-1.077
			h12.984c0.717,0,1.077,0.359,1.077,1.077v1.615c0,0.718-0.359,1.077-1.077,1.077h-4.278v16.154c0,0.718-0.359,1.077-1.077,1.077
			h-2.273C75.751,44.486,75.392,44.127,75.392,43.409z"/>
	</g>
	<g>
		<path fill="#FFFFFF" d="M88.524,23.486h7.389c2.732,0,4.577,0.484,5.534,1.451c0.957,0.968,1.436,2.787,1.436,5.459v7.18
			c0,2.673-0.479,4.492-1.436,5.459c-0.957,0.967-2.802,1.451-5.534,1.451h-7.389c-0.717,0-1.077-0.359-1.077-1.077V24.563
			C87.447,23.845,87.807,23.486,88.524,23.486z M91.875,40.747h3.799c1.097,0,1.834-0.214,2.214-0.643
			c0.378-0.429,0.568-1.291,0.568-2.588v-7.06c0-1.296-0.19-2.159-0.568-2.588c-0.38-0.428-1.117-0.643-2.214-0.643h-3.799V40.747z"
			/>
		<path fill="#FFFFFF" d="M110.421,24.563v18.846c0,0.718-0.358,1.077-1.077,1.077h-2.273c-0.718,0-1.077-0.359-1.077-1.077V24.563
			c0-0.718,0.358-1.077,1.077-1.077h2.273C110.063,23.486,110.421,23.845,110.421,24.563z"/>
		<path fill="#FFFFFF" d="M118.438,24.563v16.154h7.508c0.718,0,1.077,0.359,1.077,1.077v1.615c0,0.718-0.359,1.077-1.077,1.077
			h-10.859c-0.717,0-1.077-0.359-1.077-1.077V24.563c0-0.718,0.359-1.077,1.077-1.077h2.273
			C118.079,23.486,118.438,23.845,118.438,24.563z"/>
		<path fill="#FFFFFF" d="M133.485,24.563v16.154h7.509c0.718,0,1.077,0.359,1.077,1.077v1.615c0,0.718-0.358,1.077-1.077,1.077
			h-10.859c-0.718,0-1.077-0.359-1.077-1.077V24.563c0-0.718,0.359-1.077,1.077-1.077h2.273
			C133.126,23.486,133.485,23.845,133.485,24.563z"/>
		<path fill="#FFFFFF" d="M156.129,44.486h-10.948c-0.718,0-1.077-0.359-1.077-1.077V24.563c0-0.718,0.359-1.077,1.077-1.077h10.799
			c0.718,0,1.077,0.359,1.077,1.077v1.615c0,0.718-0.359,1.077-1.077,1.077h-7.449v4.816h6.342c0.718,0,1.077,0.359,1.077,1.077
			v1.616c0,0.718-0.359,1.077-1.077,1.077h-6.342v4.876h7.598c0.718,0,1.077,0.359,1.077,1.077v1.615
			C157.207,44.127,156.848,44.486,156.129,44.486z"/>
		<path fill="#FFFFFF" d="M169.651,43.648l-2.483-5.504h-3.051v5.265c0,0.718-0.359,1.077-1.077,1.077h-2.273
			c-0.718,0-1.077-0.359-1.077-1.077V24.563c0-0.718,0.359-1.077,1.077-1.077h6.88c2.652,0,4.472,0.46,5.459,1.378
			s1.481,2.585,1.481,5.001v1.917c0,1.757-0.247,3.1-0.741,4.028c-0.494,0.928-1.326,1.572-2.495,1.931l2.638,5.412
			c0.139,0.238,0.209,0.435,0.209,0.593c0,0.494-0.309,0.74-0.927,0.74h-2.453C170.279,44.486,169.891,44.207,169.651,43.648z
			 M164.117,34.375h3.5c0.957,0,1.62-0.199,1.989-0.598c0.369-0.399,0.553-1.097,0.553-2.094v-1.735
			c0-0.997-0.185-1.695-0.553-2.094c-0.369-0.399-1.032-0.598-1.989-0.598h-3.5V34.375z"/>
	</g>
</g>
</svg>
